<svg width="18" height="20" viewBox="0 0 18 20" fill="none" xmlns="http://www.w3.org/2000/svg">
<path d="M13.3867 6.19263C12.1985 6.19263 11.2318 5.22598 11.2318 4.03763V0H2.7175C1.5293 0 0.5625 0.966644 0.5625 2.155V17.845C0.5625 19.0334 1.5293 20 2.7175 20H15.2695C16.4577 20 17.4245 19.0334 17.4245 17.845V6.19263H13.3867ZM3.70047 9.21555C3.70047 8.18039 4.2388 7.26929 5.0495 6.74545C4.69916 6.36215 4.48508 5.8522 4.48508 5.29297C4.48508 4.10477 5.45172 3.13797 6.63992 3.13797C7.82828 3.13797 8.79492 4.10477 8.79492 5.29297C8.79492 5.8522 8.58084 6.362 8.23035 6.74545C9.0412 7.26929 9.57938 8.18039 9.57938 9.21555V10C9.57938 10.3236 9.31708 10.5859 8.99344 10.5859H4.28641C3.96292 10.5859 3.70047 10.3236 3.70047 10V9.21555ZM13.7006 16.862H4.28641C3.96292 16.862 3.70047 16.5997 3.70047 16.2761C3.70047 15.9525 3.96292 15.6902 4.28641 15.6902H13.7006C14.0241 15.6902 14.2866 15.9525 14.2866 16.2761C14.2866 16.5997 14.0241 16.862 13.7006 16.862ZM13.7006 13.7239H4.28641C3.96292 13.7239 3.70047 13.4616 3.70047 13.138C3.70047 12.8145 3.96292 12.552 4.28641 12.552H13.7006C14.0241 12.552 14.2866 12.8145 14.2866 13.138C14.2866 13.4616 14.0241 13.7239 13.7006 13.7239ZM13.7006 10.5859H12.1316C11.8079 10.5859 11.5456 10.3236 11.5456 10C11.5456 9.67636 11.8079 9.41406 12.1316 9.41406H13.7006C14.0241 9.41406 14.2866 9.67636 14.2866 10C14.2866 10.3236 14.0241 10.5859 13.7006 10.5859Z" fill="#080607"/>
</svg>
