<svg width="20" height="20" viewBox="0 0 20 20" fill="none" xmlns="http://www.w3.org/2000/svg">
<g clip-path="url(#clip0_1212_653)">
<path d="M6.86227 9.3307H13.1383C13.4619 9.3307 13.7243 9.06836 13.7243 8.74477V7.48957C13.7243 5.39895 12.0227 3.76562 10.0003 3.76562C7.97711 3.76562 6.27637 5.40031 6.27637 7.48957V8.74477C6.27633 9.06836 6.53863 9.3307 6.86227 9.3307Z" fill="white"/>
<path d="M10 3.76562C11.0398 3.76562 11.8828 2.92266 11.8828 1.88281C11.8828 0.842964 11.0398 0 10 0C8.96015 0 8.11719 0.842964 8.11719 1.88281C8.11719 2.92266 8.96015 3.76562 10 3.76562Z" fill="white"/>
<path d="M19.4176 3.138C18.3224 3.13691 17.49 4.03288 17.49 5.07816V12.5104C17.49 12.6659 17.4283 12.8149 17.3184 12.9247L16.0749 14.1682C15.8518 14.3913 15.4884 14.4118 15.255 14.1995C15.0059 13.9728 14.999 13.5868 15.2345 13.3513L16.3181 12.2677V9.91667C16.3181 9.39464 15.687 9.13324 15.3178 9.50234L12.0964 12.7237C11.9866 12.8336 11.9248 12.9826 11.9248 13.138V19.4141C11.9248 19.7376 12.1871 20 12.5107 20H16.2764C16.6 20 16.8623 19.7376 16.8623 19.4141V17.7739L19.8287 14.8076C19.9386 14.6977 20.0003 14.5487 20.0003 14.3933V3.72394C20.0004 3.4016 19.7399 3.13831 19.4176 3.138Z" fill="white"/>
<path d="M4.68254 9.50234C4.31344 9.13324 3.68227 9.39464 3.68227 9.91667V12.2677L4.76586 13.3513C5.00133 13.5868 4.99449 13.9728 4.74535 14.1995C4.51199 14.4118 4.14859 14.3913 3.92547 14.1682L2.68203 12.9247C2.57215 12.8148 2.51039 12.6658 2.51039 12.5104V5.07816C2.51039 4.03288 1.67797 3.13691 0.582812 3.138C0.260508 3.13831 0 3.4016 0 3.72394V14.3932C0 14.5487 0.0617188 14.6977 0.171641 14.8075L3.13801 17.7739V19.4141C3.13801 19.7376 3.40035 20 3.72395 20H7.48957C7.81316 20 8.07551 19.7376 8.07551 19.4141V13.138C8.07551 12.9826 8.01379 12.8335 7.90387 12.7237L4.68254 9.50234Z" fill="white"/>
</g>
<defs>
<clipPath id="clip0_1212_653">
<rect width="20" height="20" fill="white"/>
</clipPath>
</defs>
</svg>
