<svg width="290" height="261" viewBox="0 0 290 261" fill="none" xmlns="http://www.w3.org/2000/svg">
<path d="M49.6313 160.23L42.0188 160.375L38.1555 160.433C36.8644 160.457 35.5669 160.452 34.2724 160.462L34.0148 160.464L34.0137 160.23L33.9824 154.411L33.9812 154.15L34.2724 154.151L41.9516 154.184C44.5111 154.187 47.0712 154.242 49.6308 154.269L49.7908 154.271L49.7891 154.411C49.7781 155.399 49.7392 156.381 49.7131 157.351L49.6313 160.23ZM49.6313 160.23L49.549 157.29C49.5229 156.321 49.484 155.363 49.473 154.411L49.6313 154.553C47.0718 154.579 44.5117 154.636 41.9521 154.638L34.2729 154.671L34.5624 154.411L34.531 160.23L34.2724 159.998C35.5379 160.008 36.8 160.002 38.069 160.027L41.8849 160.085L49.6313 160.23Z" fill="#E9E9E9"/>
<path d="M41.0641 161.748H25.7051V167.567H41.0641V161.748Z" fill="#E9E9E9"/>
<path d="M89.5125 103.755L81.9 103.9L78.0367 103.958C76.7456 103.983 75.4481 103.978 74.1536 103.987L73.896 103.989L73.8949 103.756L73.8636 97.9368L73.8618 97.6758L74.153 97.6768L81.8322 97.7096C84.3917 97.7122 86.9518 97.7683 89.5114 97.7949L89.6715 97.7964L89.6697 97.9368C89.6587 98.9243 89.6198 99.9061 89.5937 100.877L89.5125 103.755ZM89.5125 103.755L89.4302 100.815C89.4041 99.8463 89.3652 98.8884 89.3542 97.9363L89.5125 98.0783C86.953 98.1048 84.3929 98.1609 81.8333 98.1635L74.1541 98.1963L74.4436 97.9368L74.4122 103.756L74.1536 103.524C75.4191 103.533 76.6812 103.528 77.9502 103.552L81.7661 103.611L89.5125 103.755Z" fill="#E9E9E9"/>
<path d="M80.9448 105.273H65.5864V111.092H80.9448V105.273Z" fill="#E9E9E9"/>
<path d="M72.4114 103.755L64.7989 103.9L60.9355 103.958C59.6444 103.983 58.3469 103.978 57.0524 103.987L56.7949 103.989L56.7937 103.756L56.7624 97.9368L56.7612 97.6758L57.0524 97.6768L64.7316 97.7096C67.2917 97.7122 69.8513 97.7683 72.4108 97.7949L72.5709 97.7964L72.5691 97.9368C72.5581 98.9243 72.5192 99.9061 72.4932 100.877L72.4114 103.755ZM72.4114 103.755L72.329 100.815C72.3029 99.8463 72.264 98.8884 72.253 97.9363L72.4114 98.0783C69.8518 98.1048 67.2917 98.1609 64.7322 98.1635L57.053 98.1963L57.3424 97.9368L57.3111 103.756L57.0524 103.524C58.3179 103.533 59.58 103.528 60.8491 103.552L64.6649 103.611L72.4114 103.755Z" fill="#E9E9E9"/>
<path d="M253.067 139.9L245.455 140.045L241.592 140.103C240.301 140.127 239.003 140.122 237.709 140.132L237.451 140.134L237.45 139.9L237.419 134.081L237.417 133.82L237.708 133.821L245.387 133.854C247.947 133.857 250.507 133.912 253.066 133.939L253.226 133.941L253.225 134.081C253.214 135.069 253.175 136.051 253.149 137.021L253.067 139.9ZM253.067 139.9L252.985 136.96C252.959 135.991 252.92 135.033 252.909 134.081L253.067 134.223C250.508 134.249 247.948 134.305 245.388 134.308L237.709 134.341L237.999 134.081L237.967 139.9L237.709 139.668C238.974 139.678 240.236 139.672 241.505 139.697L245.321 139.755L253.067 139.9Z" fill="#E9E9E9"/>
<path d="M260.164 141.873H244.805V147.692H260.164V141.873Z" fill="#E9E9E9"/>
<path d="M233.975 87.2548C235.883 76.5824 227.78 66.5436 215.876 64.8326C203.973 63.1216 192.776 70.3863 190.867 81.0587C188.959 91.7311 197.062 101.77 208.965 103.481C220.869 105.192 232.066 97.9272 233.975 87.2548Z" fill="#E9E9E9"/>
<path d="M216.73 103.038C228.089 101.404 235.82 91.8245 233.998 81.6406C232.175 71.4568 221.49 64.5255 210.132 66.1592C198.773 67.7928 191.042 77.3728 192.865 87.5566C194.687 97.7405 205.372 104.672 216.73 103.038Z" fill="#DBDBDB"/>
<path d="M228.662 95.5317C235.4 87.9901 234.043 76.9793 225.631 70.9384C217.219 64.8974 204.938 66.1139 198.2 73.6554C191.462 81.1969 192.819 92.2077 201.231 98.2487C209.642 104.29 221.924 103.073 228.662 95.5317Z" fill="white"/>
<path opacity="0.5" d="M232.497 80.8837C223.612 85.7109 209.007 93.6294 200.844 97.9704C198.554 96.2372 196.716 94.0413 195.511 91.5422L222.508 69.1094C227.537 71.4827 231.265 75.7675 232.497 80.8837Z" fill="#E9E9E9"/>
<path opacity="0.5" d="M232.926 85.207C232.851 87.2059 232.4 89.119 231.636 90.8922L207.297 101.212C206.23 100.894 205.202 100.498 204.224 100.028C211.576 96.218 225.01 89.288 232.926 85.207Z" fill="#E9E9E9"/>
<path d="M213.614 68.3711H213.237V71.0231H213.614V68.3711Z" fill="#C7C7C7"/>
<path d="M204.532 70.4518L204.205 70.6211L205.684 72.9177L206.011 72.7485L204.532 70.4518Z" fill="#C7C7C7"/>
<path d="M197.855 76.3362L197.667 76.6289L200.228 77.9552L200.417 77.6625L197.855 76.3362Z" fill="#C7C7C7"/>
<path d="M198.286 84.4277H195.329V84.7657H198.286V84.4277Z" fill="#C7C7C7"/>
<path d="M200.226 91.2465L197.665 92.5723L197.853 92.865L200.415 91.5393L200.226 91.2465Z" fill="#C7C7C7"/>
<path d="M205.692 96.2589L204.215 98.5566L204.542 98.7257L206.019 96.428L205.692 96.2589Z" fill="#C7C7C7"/>
<path d="M213.614 98.1699H213.237V100.822H213.614V98.1699Z" fill="#C7C7C7"/>
<path d="M221.154 96.2663L220.827 96.4355L222.305 98.7317L222.632 98.5625L221.154 96.2663Z" fill="#C7C7C7"/>
<path d="M226.641 91.2366L226.453 91.5293L229.015 92.8556L229.203 92.5629L226.641 91.2366Z" fill="#C7C7C7"/>
<path d="M231.523 84.4277H228.565V84.7657H231.523V84.4277Z" fill="#C7C7C7"/>
<path d="M229.009 76.328L226.447 77.6543L226.636 77.947L229.197 76.6207L229.009 76.328Z" fill="#C7C7C7"/>
<path d="M222.304 70.4584L220.827 72.7559L221.154 72.9249L222.632 70.6275L222.304 70.4584Z" fill="#C7C7C7"/>
<path d="M213.709 69.5716L214.351 85.7769L212.5 85.7561L213.207 69.5664L213.709 69.5716Z" fill="#C7C7C7"/>
<path d="M224.968 78.9445L212.808 85.9037L211.924 84.4451L224.728 78.5488L224.968 78.9445Z" fill="#A6A6A6"/>
<path d="M214.057 84.5956C214.057 84.9086 213.774 85.1619 213.426 85.1619C213.077 85.1619 212.794 84.9081 212.794 84.5956C212.794 84.2831 213.077 84.0293 213.426 84.0293C213.775 84.0293 214.057 84.2831 214.057 84.5956Z" fill="#C7C7C7"/>
<path d="M145 236.995C197.222 236.995 239.557 232.254 239.557 226.406C239.557 220.557 197.222 215.816 145 215.816C92.7776 215.816 50.4431 220.557 50.4431 226.406C50.4431 232.254 92.7776 236.995 145 236.995Z" fill="#E9E9E9"/>
<path d="M23.667 200.071L54.0004 199.945L84.3333 199.899L145 199.812L205.666 199.899L236 199.945L266.333 200.071L236 200.199L205.666 200.245L145 200.331L84.3333 200.244L54.0004 200.198L23.667 200.071Z" fill="#263238"/>
<path d="M240.596 119.87C240.596 119.87 228.026 118.292 230.965 104.688C230.965 104.688 245.009 107.514 240.596 119.87Z" fill="#ED272C"/>
<path opacity="0.1" d="M240.596 119.87C240.596 119.87 228.026 118.292 230.965 104.688C230.965 104.688 245.009 107.514 240.596 119.87Z" fill="black"/>
<path d="M239.961 117.029C239.716 116.341 239.426 115.665 239.105 115.001C239.095 114.914 239.081 114.828 239.072 114.744C239.054 114.557 239.037 114.369 239.02 114.182C238.985 113.776 238.956 113.37 238.93 112.964C238.876 112.152 238.818 111.338 238.805 110.524C238.804 110.48 238.728 110.481 238.728 110.526C238.72 111.34 238.706 112.154 238.741 112.968C238.759 113.375 238.785 113.781 238.815 114.187C238.821 114.277 238.829 114.367 238.836 114.457C238.133 113.102 237.283 111.806 236.316 110.594C235.885 110.052 235.43 109.532 234.942 109.031C234.441 108.517 233.911 108.028 233.404 107.518C233.372 107.486 233.317 107.536 233.351 107.568C234.276 108.433 235.04 109.459 235.774 110.456C236.156 110.974 236.516 111.506 236.86 112.047C236.821 112.034 236.781 112.02 236.743 112.006C236.594 111.951 236.446 111.896 236.295 111.844C235.954 111.726 235.612 111.61 235.269 111.495C234.595 111.271 233.92 111.05 233.248 110.821C233.208 110.807 233.179 110.87 233.22 110.884C233.888 111.123 234.55 111.376 235.21 111.632C235.534 111.757 235.859 111.882 236.183 112.007C236.346 112.07 236.51 112.129 236.674 112.189C236.784 112.229 236.892 112.278 237.008 112.294C237.261 112.702 237.512 113.112 237.743 113.529C238.325 114.582 238.843 115.668 239.279 116.776C239.31 116.854 239.339 116.931 239.369 117.009C239.059 116.822 238.663 116.699 238.339 116.564C237.907 116.385 237.472 116.211 237.038 116.032C236.157 115.669 235.281 115.301 234.436 114.873C234.393 114.851 234.355 114.912 234.399 114.934C235.262 115.356 236.109 115.807 236.974 116.228C237.407 116.439 237.841 116.643 238.284 116.835C238.648 116.993 239.057 117.213 239.465 117.259C239.858 118.3 240.188 119.353 240.289 120.456C240.429 121.994 240.413 123.545 240.453 125.087C240.454 125.114 240.497 125.112 240.499 125.086C240.625 123.687 240.695 122.275 240.702 120.872C240.709 119.537 240.413 118.295 239.961 117.029Z" fill="#263238"/>
<path d="M238.026 109.029C237.927 109.821 237.839 110.632 237.9 111.429C237.902 111.451 237.937 111.449 237.939 111.428C237.989 110.632 237.997 109.838 238.1 109.046C238.106 109.003 238.031 108.986 238.026 109.029Z" fill="#263238"/>
<path d="M234.431 109.712C233.874 109.5 233.321 109.301 232.815 109C232.774 108.975 232.736 109.037 232.778 109.06C233.285 109.344 233.829 109.621 234.41 109.76C234.441 109.767 234.462 109.723 234.431 109.712Z" fill="#263238"/>
<path d="M240.998 141.467C240.987 140.222 240.961 138.977 240.945 137.731C240.919 133.596 240.88 129.46 240.798 125.324C240.732 122.041 240.646 118.759 240.542 115.476C240.542 115.457 240.528 115.444 240.51 115.434C240.505 114.537 240.501 113.641 240.495 112.744C240.495 112.721 240.465 112.71 240.435 112.711C240.405 112.711 240.375 112.723 240.375 112.746C240.368 113.644 240.362 114.542 240.356 115.44C240.341 115.45 240.328 115.462 240.327 115.479C240.143 121.322 239.977 127.166 239.938 133.011C239.931 134.199 239.932 135.387 239.926 136.575C239.881 140.386 239.861 144.196 239.877 148.007C239.872 148.614 239.864 149.22 239.862 149.827C239.848 153.313 239.902 156.799 239.904 160.286C239.904 160.474 240.136 160.567 240.383 160.575C240.665 160.586 240.965 160.485 240.965 160.27C240.967 156.426 240.995 152.581 240.994 148.737C241.008 146.314 241.018 143.891 240.998 141.467Z" fill="#263238"/>
<path d="M235.748 137.685C235.748 137.685 229.702 133.669 223.964 136.383C218.225 139.096 217.326 149.557 217.326 149.557C217.326 149.557 225.752 150.637 231.058 146.109C236.172 141.746 235.748 137.685 235.748 137.685Z" fill="#ED272C"/>
<path d="M237.396 137.934C236.302 137.521 235.084 137.419 233.894 137.524C233.653 137.476 233.397 137.475 233.152 137.459C232.868 137.441 232.585 137.422 232.3 137.402C231.713 137.361 231.125 137.329 230.537 137.29C229.345 137.21 228.148 137.144 226.958 137.037C226.916 137.034 226.907 137.1 226.95 137.105C228.128 137.24 229.301 137.39 230.482 137.497C231.09 137.552 231.698 137.608 232.307 137.647C232.45 137.657 232.599 137.671 232.749 137.686C232.569 137.722 232.389 137.76 232.213 137.805C231.265 138.046 230.351 138.39 229.473 138.803C228.997 138.88 228.524 138.999 228.056 139.098C227.308 139.256 226.563 139.429 225.82 139.603C224.352 139.948 222.899 140.336 221.442 140.716C221.394 140.729 221.416 140.793 221.464 140.782C222.92 140.462 224.383 140.169 225.842 139.858C226.55 139.706 227.26 139.557 227.968 139.401C228.151 139.361 228.337 139.324 228.524 139.286C226.895 140.185 225.431 141.338 224.226 142.636C223.023 143.932 222.065 145.35 221.24 146.859C221.218 146.898 221.279 146.935 221.304 146.896C222.282 145.361 223.511 143.915 224.918 142.643C224.892 142.716 224.865 142.787 224.839 142.86C224.727 143.178 224.615 143.498 224.504 143.818C224.28 144.456 224.053 145.093 223.841 145.735C223.826 145.778 223.898 145.792 223.915 145.751C224.169 145.133 224.411 144.51 224.655 143.888C224.774 143.583 224.894 143.278 225.014 142.973C225.076 142.814 225.136 142.655 225.195 142.497C225.213 142.448 225.235 142.399 225.253 142.351C225.932 141.762 226.646 141.21 227.397 140.713C228.389 140.056 229.472 139.502 230.606 139.063C230.585 139.157 230.566 139.251 230.545 139.341C230.486 139.588 230.424 139.835 230.367 140.082C230.248 140.596 230.137 141.11 230.026 141.624C229.798 142.673 229.657 143.735 229.438 144.785C229.428 144.828 229.501 144.845 229.512 144.801C229.783 143.746 230.132 142.708 230.395 141.651C230.526 141.122 230.658 140.594 230.781 140.063C230.839 139.816 230.893 139.568 230.95 139.32C230.981 139.181 231.017 139.043 231.034 138.905C231.145 138.866 231.252 138.82 231.363 138.783C232.949 138.257 234.702 137.874 236.393 138.166C238.011 138.444 239.397 139.417 240.032 140.78C240.087 140.898 240.294 140.824 240.264 140.703C239.937 139.402 238.725 138.434 237.396 137.934Z" fill="#263238"/>
<path d="M228.14 142.4C227.969 143.087 227.799 143.774 227.631 144.461C227.469 145.117 227.269 145.795 227.208 146.465C227.206 146.492 227.248 146.492 227.257 146.47C227.504 145.824 227.624 145.12 227.77 144.451C227.92 143.773 228.068 143.095 228.215 142.417C228.224 142.374 228.152 142.357 228.14 142.4Z" fill="#263238"/>
<path d="M222.293 144.146C221.523 144.496 220.777 144.894 219.973 145.181C219.922 145.199 219.954 145.266 220.004 145.244C220.779 144.897 221.58 144.592 222.312 144.173C222.33 144.162 222.313 144.138 222.293 144.146Z" fill="#263238"/>
<path d="M237.107 130.309C237.107 130.309 229.718 130.732 226.28 126.363C222.843 121.994 223.615 115.756 223.615 115.756C223.615 115.756 231.376 116.601 234.459 119.739C237.542 122.876 237.107 130.309 237.107 130.309Z" fill="#ED272C"/>
<path d="M240.575 136.846C240.319 136.136 240.002 135.437 239.703 134.74C239.416 134.072 239.109 133.41 238.784 132.756C238.12 131.42 237.388 130.117 236.569 128.852C236.048 128.047 235.489 127.266 234.914 126.496C234.902 126.378 234.876 126.261 234.856 126.143C234.822 125.938 234.789 125.732 234.753 125.528C234.68 125.108 234.598 124.69 234.52 124.271C234.35 123.357 234.139 122.448 233.977 121.532C233.97 121.489 233.893 121.49 233.901 121.533C234.05 122.437 234.151 123.347 234.292 124.251C234.362 124.696 234.426 125.141 234.501 125.584C234.529 125.745 234.557 125.905 234.586 126.065C233.456 124.591 232.242 123.171 230.93 121.814C230.753 121.631 230.571 121.453 230.391 121.273C230.372 121.222 230.345 121.173 230.323 121.121C230.268 120.995 230.215 120.869 230.162 120.742C230.053 120.479 229.947 120.216 229.842 119.952C229.634 119.433 229.448 118.909 229.291 118.377C229.278 118.334 229.206 118.354 229.218 118.397C229.367 118.94 229.524 119.484 229.702 120.02C229.788 120.28 229.882 120.536 229.984 120.79C230.002 120.833 230.02 120.876 230.037 120.918C229.092 119.995 228.107 119.106 227.112 118.227C227.077 118.196 227.025 118.245 227.059 118.277C228.99 120.049 230.697 122.007 232.296 124.027C232.115 123.975 231.93 123.934 231.749 123.903C231.18 123.804 230.606 123.731 230.031 123.666C228.827 123.529 227.627 123.392 226.428 123.223C226.38 123.216 226.361 123.281 226.409 123.289C227.554 123.492 228.689 123.723 229.826 123.957C230.363 124.068 230.901 124.162 231.441 124.257C231.891 124.337 232.308 124.46 232.739 124.588C232.858 124.742 232.982 124.893 233.1 125.047C233.642 125.754 234.163 126.476 234.673 127.204C234.421 127.159 234.17 127.116 233.919 127.072C233.348 126.973 232.775 126.88 232.202 126.795C231.075 126.629 229.947 126.454 228.833 126.226C228.785 126.217 228.766 126.283 228.815 126.293C229.944 126.531 231.064 126.808 232.185 127.076C232.726 127.205 233.272 127.324 233.819 127.432C234.092 127.486 234.366 127.54 234.64 127.591C234.758 127.613 234.869 127.64 234.972 127.642C236.052 129.212 237.066 130.818 238.002 132.457C238.415 133.177 238.811 133.906 239.196 134.638C239.591 135.391 239.929 136.158 240.293 136.922C240.365 137.075 240.635 137.012 240.575 136.846Z" fill="#263238"/>
<path d="M233.013 121.62C232.872 120.989 232.723 120.358 232.567 119.729C232.556 119.686 232.484 119.706 232.494 119.749C232.634 120.37 232.767 120.992 232.893 121.615C233.017 122.233 233.118 122.867 233.312 123.472C233.315 123.482 233.335 123.48 233.334 123.468C233.296 122.848 233.148 122.227 233.013 121.62Z" fill="#263238"/>
<path d="M228.702 121.435C228.359 121.283 227.997 121.158 227.64 121.035C227.453 120.97 227.266 120.905 227.08 120.838C226.985 120.804 226.889 120.77 226.794 120.736C226.693 120.699 226.569 120.672 226.482 120.613C226.427 120.575 226.391 120.663 226.446 120.671C226.555 120.687 226.662 120.746 226.762 120.787C226.856 120.824 226.949 120.862 227.042 120.899C227.222 120.971 227.402 121.043 227.581 121.115C227.938 121.256 228.301 121.398 228.673 121.502C228.716 121.514 228.743 121.454 228.702 121.435Z" fill="#263238"/>
<path d="M244.671 125.101C244.671 125.101 249.144 117.611 255.947 116.452C262.751 115.292 266.914 121.568 266.914 121.568C266.914 121.568 261.953 127.249 255.709 128.241C249.465 129.233 244.671 125.101 244.671 125.101Z" fill="#ED272C"/>
<path d="M260.506 119.808C258.744 119.591 256.938 119.616 255.171 119.864C255.273 119.815 255.374 119.764 255.474 119.718C255.98 119.489 256.481 119.256 256.984 119.022C258.028 118.534 259.084 118.016 260.178 117.623C260.229 117.605 260.198 117.54 260.147 117.561C259.083 118.005 257.979 118.378 256.912 118.818C256.377 119.038 255.853 119.267 255.333 119.514C254.998 119.674 254.626 119.824 254.296 120.015C252.802 120.29 251.342 120.716 249.972 121.303C250.256 121.026 250.54 120.75 250.823 120.472C251.457 119.85 252.08 119.197 252.777 118.629C252.814 118.6 252.758 118.553 252.722 118.582C252.009 119.162 251.258 119.699 250.568 120.301C250.233 120.594 249.912 120.897 249.6 121.209C249.444 121.364 249.288 121.525 249.14 121.691C246.181 123.133 243.664 125.309 242.004 127.94C241.06 129.435 240.401 131.052 240.019 132.733C240.009 132.776 240.077 132.8 240.091 132.756C241.025 129.929 242.789 127.272 245.092 125.168C247.592 122.886 250.749 121.237 254.207 120.44C256.26 119.967 258.383 119.803 260.498 119.928C260.584 119.933 260.591 119.818 260.506 119.808Z" fill="#263238"/>
<path opacity="0.1" d="M266.916 121.569C266.916 121.569 261.952 127.252 255.707 128.242C250.945 128.999 247.027 126.772 245.436 125.676L245.093 125.17C245.093 125.17 248.314 122.736 254.406 121.332C260.499 119.928 266.916 121.569 266.916 121.569Z" fill="black"/>
<path d="M256.555 117.138C256.038 117.421 255.525 117.702 255.044 118.032C254.571 118.357 254.131 118.711 253.732 119.108C253.697 119.144 253.752 119.189 253.791 119.158C254.242 118.807 254.696 118.455 255.165 118.122C255.626 117.794 256.094 117.47 256.596 117.196C256.638 117.174 256.597 117.115 256.555 117.138Z" fill="#263238"/>
<path d="M260.288 118.405C260.036 118.499 259.779 118.581 259.527 118.675C259.274 118.769 259.022 118.862 258.769 118.956C258.715 118.976 258.741 119.056 258.796 119.035C259.049 118.943 259.302 118.851 259.555 118.759C259.809 118.667 260.056 118.563 260.31 118.471C260.356 118.455 260.334 118.388 260.288 118.405Z" fill="#263238"/>
<path d="M243.779 134.526C243.779 134.526 244.973 141.955 251.204 144.554C257.435 147.153 265.032 144.554 265.032 144.554C265.032 144.554 262.045 128.48 243.779 134.526Z" fill="#ED272C"/>
<path d="M260.739 139.722C260.164 139.663 259.593 139.575 259.024 139.482C258.744 139.436 258.465 139.389 258.186 139.34C258.045 139.315 257.897 139.285 257.749 139.262C257.581 139.121 257.416 138.979 257.244 138.843C256.065 137.911 254.786 137.085 253.433 136.366C252.697 135.975 251.933 135.624 251.149 135.314C251.188 135.315 251.227 135.317 251.266 135.319C251.95 135.345 252.634 135.37 253.317 135.399C254.685 135.455 256.052 135.482 257.419 135.562C257.468 135.565 257.466 135.496 257.417 135.493C256.045 135.41 254.681 135.275 253.311 135.169C252.646 135.118 251.982 135.064 251.318 135.01C250.976 134.983 250.633 134.957 250.291 134.93C250.204 134.923 250.116 134.914 250.029 134.905C249.673 134.786 249.315 134.674 248.953 134.573C247.249 134.099 245.422 133.911 243.675 134.312C242.107 134.672 240.543 135.593 240.137 137.075C240.123 137.126 240.212 137.161 240.236 137.109C240.821 135.871 242.354 135.248 243.737 134.99C244.668 134.817 245.62 134.827 246.559 134.941C246.597 135.322 246.757 135.713 246.873 136.064C247.046 136.587 247.216 137.111 247.392 137.632C247.746 138.676 248.135 139.709 248.479 140.755C248.493 140.797 248.565 140.778 248.553 140.735C248.264 139.692 248.019 138.64 247.739 137.595C247.602 137.082 247.458 136.57 247.316 136.058C247.225 135.73 247.149 135.342 247.002 135.002C247.55 135.088 248.092 135.205 248.619 135.344C249.576 135.596 250.52 135.909 251.443 136.271C251.535 136.801 251.666 137.326 251.802 137.848C251.973 138.504 252.162 139.154 252.394 139.795C252.408 139.835 252.473 139.817 252.464 139.776C252.455 139.735 252.445 139.695 252.436 139.655C252.436 139.654 252.434 139.653 252.434 139.653C252.295 139.046 252.145 138.44 252.002 137.833C251.887 137.344 251.781 136.853 251.662 136.364C252.437 136.675 253.197 137.016 253.934 137.395C253.949 137.547 253.99 137.702 254.014 137.84C254.06 138.094 254.111 138.348 254.163 138.602C254.28 139.175 254.408 139.746 254.561 140.313C254.856 141.403 255.186 142.494 255.632 143.543C255.623 143.556 255.619 143.573 255.633 143.587C255.645 143.599 255.657 143.612 255.668 143.624C255.695 143.652 255.74 143.619 255.732 143.589C255.443 142.488 255.114 141.396 254.844 140.291C254.71 139.739 254.574 139.187 254.45 138.634C254.388 138.357 254.332 138.079 254.274 137.802C254.257 137.724 254.245 137.639 254.231 137.554C255.072 138 255.886 138.482 256.657 139.004C257.986 139.904 259.26 140.931 260.371 142.044C260.415 142.089 260.503 142.026 260.462 141.978C259.987 141.418 259.514 140.871 258.977 140.353C258.664 140.052 258.338 139.761 258.006 139.477C258.041 139.482 258.077 139.488 258.11 139.493C258.401 139.537 258.694 139.576 258.987 139.611C259.563 139.68 260.141 139.73 260.719 139.79C260.769 139.793 260.788 139.727 260.739 139.722Z" fill="#263238"/>
<path d="M256.36 142.24C256.35 142.175 256.338 142.111 256.324 142.047C256.306 141.965 256.262 141.887 256.249 141.804C256.249 141.802 256.247 141.802 256.247 141.801C256.119 141.305 256.011 140.805 255.91 140.303C255.903 140.268 255.841 140.278 255.843 140.313C255.87 140.976 256.053 141.635 256.317 142.252C256.325 142.272 256.364 142.27 256.361 142.246C256.36 142.244 256.36 142.242 256.36 142.24Z" fill="#263238"/>
<path d="M251.144 142.121C251.143 142.1 251.125 142.09 251.107 142.089C250.933 141.432 250.764 140.773 250.613 140.111C250.534 139.762 250.452 139.415 250.378 139.066C250.338 138.877 250.299 138.69 250.262 138.501C250.229 138.338 250.214 138.165 250.128 138.018C250.113 137.993 250.063 137.998 250.058 138.028C250.006 138.34 250.15 138.718 250.214 139.024C250.291 139.387 250.369 139.749 250.458 140.11C250.639 140.842 250.844 141.573 251.075 142.294C251.088 142.335 251.161 142.325 251.158 142.282C251.153 142.229 251.148 142.175 251.144 142.121Z" fill="#263238"/>
<path d="M260.171 137.582C259.033 137.442 257.896 137.294 256.755 137.17C256.707 137.165 256.688 137.231 256.737 137.237C257.873 137.388 259.013 137.514 260.153 137.649C260.201 137.654 260.22 137.587 260.171 137.582Z" fill="#263238"/>
<path d="M240.586 117.101C240.586 117.101 236.774 102.104 254.747 96.0352C254.747 96.0352 259.726 115.776 240.586 117.101Z" fill="#ED272C"/>
<path d="M244.466 108.596C244.534 108.558 244.599 108.521 244.659 108.491C244.999 108.324 245.336 108.152 245.675 107.982L247.759 106.937C249.131 106.249 250.485 105.533 251.866 104.86C251.91 104.839 251.869 104.781 251.826 104.802C250.443 105.476 249.034 106.108 247.642 106.767L245.582 107.744C245.302 107.876 245.021 108.009 244.741 108.143C245.34 107.123 245.981 106.123 246.684 105.161C247.624 103.877 248.652 102.653 249.725 101.456C249.774 101.401 249.693 101.331 249.636 101.38C248.051 102.74 246.679 104.295 245.48 105.948C245.482 105.895 245.483 105.842 245.485 105.792C245.506 105.419 245.517 105.045 245.523 104.672C245.535 103.94 245.495 103.207 245.52 102.476C245.521 102.432 245.445 102.434 245.443 102.478C245.409 103.198 245.313 103.916 245.267 104.636C245.245 104.996 245.227 105.355 245.215 105.715C245.209 105.909 245.188 106.131 245.196 106.343C244.826 106.871 244.47 107.407 244.134 107.95C243.535 108.918 242.999 109.931 242.527 110.97C242.509 110.596 242.485 110.224 242.46 109.85C242.406 109.029 242.294 108.212 242.255 107.39C242.254 107.346 242.178 107.347 242.179 107.392C242.198 108.213 242.155 109.035 242.184 109.856C242.198 110.267 242.212 110.678 242.242 111.087C242.253 111.238 242.262 111.392 242.273 111.545C241.701 112.891 241.24 114.276 240.916 115.667C240.566 117.169 240.423 118.674 240.247 120.196C240.246 120.207 240.265 120.206 240.266 120.195C240.423 118.838 240.807 117.468 241.22 116.157C241.443 115.449 241.677 114.745 241.93 114.046C242.678 113.73 243.394 113.336 244.116 112.978C244.865 112.605 245.621 112.241 246.372 111.871C247.87 111.134 249.367 110.383 250.915 109.732C250.96 109.713 250.919 109.655 250.875 109.673C249.307 110.309 247.728 110.915 246.19 111.608C245.424 111.953 244.671 112.321 243.924 112.699C243.3 113.014 242.659 113.33 242.062 113.692C242.237 113.226 242.418 112.761 242.617 112.301C243.164 111.041 243.78 109.802 244.466 108.596Z" fill="#263238"/>
<path d="M242.951 105.167C242.947 105.123 242.871 105.125 242.874 105.169C242.939 106.024 242.971 106.88 243.072 107.733C243.078 107.781 243.159 107.78 243.156 107.731C243.123 106.873 243.021 106.023 242.951 105.167Z" fill="#263238"/>
<path d="M251.568 108.032C250.442 108.438 249.308 108.824 248.189 109.244C248.158 109.256 248.172 109.301 248.205 109.29C249.34 108.909 250.461 108.493 251.591 108.098C251.636 108.082 251.614 108.015 251.568 108.032Z" fill="#263238"/>
<path d="M253.276 101.115C252.176 101.572 251.11 102.078 250.08 102.652C250.027 102.681 250.077 102.753 250.13 102.725C251.172 102.179 252.234 101.655 253.316 101.174C253.361 101.153 253.32 101.097 253.276 101.115Z" fill="#263238"/>
<path d="M253.005 149.531H227.085V174.026H253.005V149.531Z" fill="#37474F"/>
<path d="M226.627 158.199H225.301V200.156H226.627V158.199Z" fill="#263238"/>
<path d="M254.649 158.199H253.323V200.156H254.649V158.199Z" fill="#263238"/>
<path d="M241.344 158.199H240.018V200.156H241.344V158.199Z" fill="#263238"/>
<path d="M253.986 172.457H225.965V175.848H253.986V172.457Z" fill="#263238"/>
<path d="M60.1638 197.331C60.1638 208.136 69.4879 216.984 81.324 217.769V217.827H210.798C225.64 217.827 237.667 207.044 237.667 193.737C237.667 181.192 226.972 170.876 213.31 169.75C212.536 147.946 192.581 130.477 168.072 130.477C148.56 130.477 131.929 141.543 125.573 157.057C121.958 155.419 117.885 154.509 113.56 154.509C99.275 154.509 87.5914 164.495 86.7412 177.109C85.5359 176.927 84.293 176.836 83.0239 176.836C70.4014 176.836 60.1638 186.014 60.1638 197.331Z" fill="#2A2A2A"/>
<g opacity="0.1">
<g filter="url(#filter0_d_1584_8331)">
<path d="M60.1638 197.331C60.1638 208.136 69.4879 216.984 81.324 217.769V217.827H210.798C225.64 217.827 237.667 207.044 237.667 193.737C237.667 181.192 226.972 170.876 213.31 169.75C212.536 147.946 192.581 130.477 168.072 130.477C148.56 130.477 131.929 141.543 125.573 157.057C121.958 155.419 117.885 154.509 113.56 154.509C99.275 154.509 87.5914 164.495 86.7412 177.109C85.5359 176.927 84.293 176.836 83.0239 176.836C70.4014 176.836 60.1638 186.014 60.1638 197.331Z" fill="#080607"/>
</g>
</g>
<g filter="url(#filter1_d_1584_8331)">
<path d="M52.3328 197.331C52.3328 208.136 61.6568 216.984 73.4929 217.769V217.827H202.967C217.81 217.827 229.835 207.044 229.835 193.737C229.835 181.192 219.141 170.876 205.478 169.75C204.705 147.946 184.749 130.477 160.24 130.477C140.729 130.477 124.097 141.543 117.742 157.057C114.127 155.419 110.054 154.509 105.728 154.509C91.4433 154.509 79.7598 164.495 78.9095 177.109C77.7043 176.927 76.4608 176.836 75.1923 176.836C62.5703 176.836 52.3328 186.014 52.3328 197.331Z" fill="#ED272C"/>
</g>
<path d="M160.329 234.391V180.352H136.99V226.57C143.613 230.969 151.629 233.782 160.329 234.391Z" fill="white"/>
<path d="M172.319 180.35H125L148.659 154.001L172.319 180.35Z" fill="white"/>
<path d="M98.5205 103.107H54.4492V128.654H98.5205V103.107Z" fill="#ED272C"/>
<path d="M68.3379 100.461H54.4492V103.107H69.136L68.3379 100.461Z" fill="#ED272C"/>
<g opacity="0.1">
<path d="M98.5205 103.107H54.4492V128.654H98.5205V103.107Z" fill="black"/>
<path d="M68.3379 100.461H54.4492V103.107H69.136L68.3379 100.461Z" fill="black"/>
</g>
<path d="M86.1044 117.002L57.4414 116.988L57.46 84L78.7425 84.0099L86.1195 90.2988L86.1044 117.002Z" fill="#ED272C"/>
<path opacity="0.6" d="M86.1044 117.002L57.4414 116.988L57.46 84L78.7425 84.0099L86.1195 90.2988L86.1044 117.002Z" fill="white"/>
<path d="M78.7426 84.0078L86.1196 90.2967L78.7385 90.2936L78.7426 84.0078Z" fill="#ED272C"/>
<path opacity="0.4" d="M78.7426 84.0078L86.1196 90.2967L78.7385 90.2936L78.7426 84.0078Z" fill="white"/>
<path d="M60.2525 90.3833L76.1892 90.3906L76.1897 89.5435L60.253 89.5363L60.2525 90.3833Z" fill="white"/>
<path d="M60.2513 92.522L76.188 92.5293L76.1885 91.6822L60.2518 91.6749L60.2513 92.522Z" fill="white"/>
<path d="M60.2501 94.6587L76.1868 94.666L76.1872 93.8189L60.2506 93.8117L60.2501 94.6587Z" fill="white"/>
<path d="M60.249 96.7979L83.5986 96.8086L83.5991 95.9615L60.2495 95.9508L60.249 96.7979Z" fill="white"/>
<path d="M60.2478 98.9367L83.5974 98.9473L83.5979 98.1002L60.2483 98.0896L60.2478 98.9367Z" fill="white"/>
<path d="M60.2466 101.073L83.5962 101.084L83.5967 100.237L60.247 100.226L60.2466 101.073Z" fill="white"/>
<path d="M60.2453 103.212L83.595 103.223L83.5954 102.376L60.2458 102.365L60.2453 103.212Z" fill="white"/>
<path d="M60.2441 105.351L83.5938 105.361L83.5942 104.514L60.2446 104.504L60.2441 105.351Z" fill="white"/>
<path d="M60.2429 107.487L83.5925 107.498L83.593 106.651L60.2434 106.64L60.2429 107.487Z" fill="white"/>
<path d="M60.2414 109.626L83.5911 109.637L83.5915 108.79L60.2419 108.779L60.2414 109.626Z" fill="white"/>
<path d="M60.2409 111.765L83.5906 111.775L83.5911 110.928L60.2414 110.918L60.2409 111.765Z" fill="white"/>
<path d="M60.2397 113.903L83.5894 113.914L83.5898 113.067L60.2402 113.056L60.2397 113.903Z" fill="white"/>
<path d="M79.3573 122.275L111.557 112.775L104.446 93.4746L72.2471 102.974L79.3573 122.275Z" fill="#E9E9E9"/>
<path d="M80.2521 120.679L109.779 111.968L103.551 95.0723L74.0247 103.783L80.2521 120.679Z" fill="white"/>
<path d="M78.6426 108.26C79.2267 109.851 81.1378 110.716 82.912 110.193C84.6863 109.669 85.6514 107.955 85.0673 106.364C84.4833 104.774 82.5716 103.908 80.7974 104.432C79.0237 104.956 78.0586 106.67 78.6426 108.26Z" fill="#DBDBDB"/>
<path d="M89.4302 118.001L109.769 112L95.0637 102.643L89.4302 118.001Z" fill="#E9E9E9"/>
<path d="M81.4592 120.359L98.2514 115.405L86.902 109.834L81.4592 120.359Z" fill="#E9E9E9"/>
<path d="M98.4174 128.651H54.3461L51.3145 105.225H95.3858L98.4174 128.651Z" fill="#ED272C"/>
<path d="M64.8893 102.799H51L51.3144 105.225H66.0011L64.8893 102.799Z" fill="#ED272C"/>
<path d="M62.2334 118.983C62.2334 120.502 63.5442 121.746 65.2076 121.856V121.864H83.4069C85.4931 121.864 87.1838 120.348 87.1838 118.478C87.1838 116.715 85.6805 115.264 83.7601 115.106C83.6511 112.041 80.8462 109.586 77.401 109.586C74.6582 109.586 72.3208 111.142 71.427 113.322C70.9189 113.092 70.3464 112.964 69.7386 112.964C67.7306 112.964 66.0881 114.367 65.9686 116.141C65.7992 116.115 65.6247 116.102 65.446 116.102C63.6724 116.102 62.2334 117.392 62.2334 118.983Z" fill="white"/>
<path d="M76.966 124.303V116.707H73.6855V123.203C74.6164 123.822 75.7434 124.217 76.966 124.303Z" fill="#ED272C"/>
<path d="M78.6514 116.703H72L75.3257 112.999L78.6514 116.703Z" fill="#ED272C"/>
<defs>
<filter id="filter0_d_1584_8331" x="56.1638" y="130.477" width="185.503" height="95.3496" filterUnits="userSpaceOnUse" color-interpolation-filters="sRGB">
<feFlood flood-opacity="0" result="BackgroundImageFix"/>
<feColorMatrix in="SourceAlpha" type="matrix" values="0 0 0 0 0 0 0 0 0 0 0 0 0 0 0 0 0 0 127 0" result="hardAlpha"/>
<feOffset dy="4"/>
<feGaussianBlur stdDeviation="2"/>
<feComposite in2="hardAlpha" operator="out"/>
<feColorMatrix type="matrix" values="0 0 0 0 0 0 0 0 0 0 0 0 0 0 0 0 0 0 0.25 0"/>
<feBlend mode="normal" in2="BackgroundImageFix" result="effect1_dropShadow_1584_8331"/>
<feBlend mode="normal" in="SourceGraphic" in2="effect1_dropShadow_1584_8331" result="shape"/>
</filter>
<filter id="filter1_d_1584_8331" x="48.3328" y="130.477" width="185.503" height="95.3496" filterUnits="userSpaceOnUse" color-interpolation-filters="sRGB">
<feFlood flood-opacity="0" result="BackgroundImageFix"/>
<feColorMatrix in="SourceAlpha" type="matrix" values="0 0 0 0 0 0 0 0 0 0 0 0 0 0 0 0 0 0 127 0" result="hardAlpha"/>
<feOffset dy="4"/>
<feGaussianBlur stdDeviation="2"/>
<feComposite in2="hardAlpha" operator="out"/>
<feColorMatrix type="matrix" values="0 0 0 0 0 0 0 0 0 0 0 0 0 0 0 0 0 0 0.15 0"/>
<feBlend mode="normal" in2="BackgroundImageFix" result="effect1_dropShadow_1584_8331"/>
<feBlend mode="normal" in="SourceGraphic" in2="effect1_dropShadow_1584_8331" result="shape"/>
</filter>
</defs>
</svg>
