<svg width="16" height="20" viewBox="0 0 16 20" fill="none" xmlns="http://www.w3.org/2000/svg">
<path d="M13.4766 2.34375H12.3047V2.92969C12.3047 3.89898 11.5162 4.6875 10.5469 4.6875H4.6875C3.7182 4.6875 2.92969 3.89898 2.92969 2.92969V2.34375H1.75781C0.788516 2.34375 0 3.13227 0 4.10156V18.2422C0 19.2115 0.788516 20 1.75781 20H13.4766C14.4459 20 15.2344 19.2115 15.2344 18.2422V4.10156C15.2344 3.13227 14.4459 2.34375 13.4766 2.34375ZM12.8906 17.0703C12.8906 17.3942 12.6286 17.6562 12.3047 17.6562H2.92969C2.60582 17.6562 2.34375 17.3942 2.34375 17.0703V7.69531C2.34375 7.37145 2.60582 7.10938 2.92969 7.10938C3.25355 7.10938 3.51562 7.37145 3.51562 7.69531V16.4844H4.6875V12.3828C4.6875 12.0589 4.94957 11.7969 5.27344 11.7969H7.61719C7.94105 11.7969 8.20312 12.0589 8.20312 12.3828V16.4844H9.375V10.0391C9.375 9.7152 9.63707 9.45312 9.96094 9.45312H12.3047C12.6286 9.45312 12.8906 9.7152 12.8906 10.0391V17.0703Z" fill="var(--primary2)"/>
<path d="M9.96094 1.17188H8.86117L8.7227 0.781641C8.55676 0.314141 8.11273 0 7.61719 0C7.12164 0 6.67762 0.314141 6.51168 0.781641L6.3732 1.17188H5.27344C4.62621 1.17188 4.10156 1.69652 4.10156 2.34375V2.92969C4.10156 3.25328 4.36391 3.51562 4.6875 3.51562H10.5469C10.8705 3.51562 11.1328 3.25328 11.1328 2.92969V2.34375C11.1328 1.69652 10.6082 1.17188 9.96094 1.17188Z" fill="var(--primary2)"/>
</svg>
