<svg width="34" height="34" viewBox="0 0 34 34" fill="none" xmlns="http://www.w3.org/2000/svg">
<path d="M13.1111 29.3455V25.0803C13.1111 23.9916 14.0002 23.1089 15.0969 23.1089H19.106C19.6327 23.1089 20.1378 23.3166 20.5102 23.6863C20.8826 24.0561 21.0919 24.5575 21.0919 25.0803V29.3455C21.0885 29.7981 21.2673 30.2334 21.5886 30.5546C21.9098 30.8758 22.3469 31.0565 22.8029 31.0565H25.5381C26.8155 31.0598 28.0418 30.5583 28.9462 29.6627C29.8507 28.7672 30.359 27.5512 30.359 26.283V14.1323C30.359 13.1079 29.9016 12.1362 29.1101 11.479L19.8054 4.10181C18.1869 2.80833 15.8678 2.8501 14.2976 4.201L5.2053 11.479C4.37637 12.1169 3.88093 13.0914 3.85645 14.1323V26.2706C3.85645 28.9138 6.01484 31.0565 8.67736 31.0565H11.3501C12.2971 31.0565 13.0668 30.298 13.0736 29.3579L13.1111 29.3455Z" fill="var(--primary2)" fill-opacity="0.7"/>
</svg>
