<svg width="38" height="38" viewBox="0 0 38 38" fill="none" xmlns="http://www.w3.org/2000/svg">
<rect width="38" height="38" rx="5" fill="#CFE3FF"/>
<g clip-path="url(#clip0_1221_2979)">
<path d="M28.4909 25.9079C27.8119 26.5869 26.7074 26.5865 26.0288 25.9079L23.1439 23.023C22.8758 22.7549 22.933 22.3046 23.2607 22.1123C23.5536 21.9405 23.8255 21.7301 24.0693 21.4863C24.313 21.2426 24.5235 20.9706 24.6952 20.6778C24.8879 20.3493 25.3382 20.2932 25.6059 20.5609L28.4909 23.4459C29.1698 24.1248 29.1698 25.229 28.4909 25.9079Z" fill="#4D578C"/>
<path d="M28.4909 25.9079L24.0693 21.4863C24.3131 21.2426 24.5235 20.9706 24.6953 20.6778C24.888 20.3493 25.3383 20.2932 25.606 20.5609L28.4909 23.4459C29.1699 24.1248 29.1699 25.229 28.4909 25.9079Z" fill="#333E73"/>
<path d="M17.1853 11.1462L16.0373 9.09619H13.1001L11.31 11.2833L9 13.1963V28.3239C9 28.6442 9.25998 28.9042 9.58031 28.9042H16.0373L17.1853 26.5952V11.1462Z" fill="#F5F8F9"/>
<path d="M23.074 9.6765V28.3239C23.074 28.6442 22.814 28.9042 22.4937 28.9042H16.0371V9.09619H22.4937C22.814 9.09619 23.074 9.35617 23.074 9.6765Z" fill="#DBE1E8"/>
<path d="M25.3821 21.0813C25.1763 21.4322 24.924 21.758 24.6323 22.0497C24.341 22.341 24.0153 22.5936 23.6636 22.7995C22.9138 23.2405 22.0832 23.4583 21.2565 23.4633C21.246 23.4637 21.236 23.4637 21.2255 23.4637C19.9778 23.4637 18.7425 22.9797 17.8125 22.0501C15.9323 20.1699 15.9323 17.1101 17.8125 15.2299C18.7236 14.3192 19.9345 13.8174 21.2224 13.8174C21.2336 13.8174 21.2452 13.8174 21.2565 13.8178C22.532 13.8263 23.7301 14.3273 24.6327 15.2299C26.1864 16.7836 26.4944 19.1895 25.3821 21.0813Z" fill="#F5F8F9"/>
<path d="M13.1001 9.09619V12.616C13.1001 12.9363 12.8401 13.1963 12.5198 13.1963H9V13.0029C9 12.8489 9.06113 12.7015 9.16984 12.5924L12.4962 9.26603C12.6053 9.15732 12.7527 9.09619 12.9067 9.09619H13.1001Z" fill="#DBE1E8"/>
<path d="M13.7301 19.5805H11.3074C10.9869 19.5805 10.7271 19.3207 10.7271 19.0002C10.7271 18.6797 10.9869 18.4199 11.3074 18.4199H13.7301C14.0506 18.4199 14.3104 18.6797 14.3104 19.0002C14.3104 19.3207 14.0506 19.5805 13.7301 19.5805Z" fill="#B4B9F2"/>
<path d="M13.7301 21.9018H11.3074C10.9869 21.9018 10.7271 21.642 10.7271 21.3215C10.7271 21.001 10.9869 20.7412 11.3074 20.7412H13.7301C14.0506 20.7412 14.3104 21.001 14.3104 21.3215C14.3104 21.642 14.0506 21.9018 13.7301 21.9018Z" fill="#B4B9F2"/>
<path d="M13.7301 24.2231H11.3074C10.9869 24.2231 10.7271 23.9633 10.7271 23.6428C10.7271 23.3223 10.9869 23.0625 11.3074 23.0625H13.7301C14.0506 23.0625 14.3104 23.3223 14.3104 23.6428C14.3104 23.9633 14.0506 24.2231 13.7301 24.2231Z" fill="#B4B9F2"/>
<path d="M13.7301 17.2593H11.3074C10.9869 17.2593 10.7271 16.9994 10.7271 16.6789C10.7271 16.3585 10.9869 16.0986 11.3074 16.0986H13.7301C14.0506 16.0986 14.3104 16.3585 14.3104 16.6789C14.3104 16.9994 14.0506 17.2593 13.7301 17.2593Z" fill="#B4B9F2"/>
<path d="M25.382 21.081C25.1762 21.4319 24.9239 21.7576 24.6322 22.0493C24.3409 22.3406 24.0152 22.5933 23.6635 22.7991C22.9137 23.2401 22.0831 23.4579 21.2563 23.4629V13.8174C22.5319 13.8259 23.73 14.3269 24.6326 15.2295C26.1863 16.7832 26.4942 19.1891 25.382 21.081Z" fill="#DBE1E8"/>
<path d="M21.6685 19.389L21.2568 18.5202L20.5879 17.8513C20.3626 17.6252 19.9942 17.6237 19.7673 17.8513L18.2005 19.4178C17.9742 19.6445 17.9742 20.0116 18.2005 20.2383C18.4258 20.4636 18.7938 20.466 19.0215 20.2383L20.1774 19.0824L21.2568 20.1617L21.6685 19.7662V19.389Z" fill="#FFB555"/>
<path d="M24.3127 18.0087L22.1183 20.203C22.0096 20.3117 21.8622 20.3729 21.7082 20.3729C21.5542 20.3729 21.4065 20.3117 21.2977 20.203L21.2563 20.1616V18.5201L21.7082 18.972L23.4921 17.1881C23.7188 16.9614 24.086 16.9614 24.3127 17.1881C24.5394 17.4148 24.5394 17.782 24.3127 18.0087Z" fill="#FF9000"/>
<path d="M21.2565 22.6666C20.1062 22.6666 19.1047 22.2152 18.3758 21.4866C16.8062 19.9167 16.8062 17.3626 18.3758 15.793C19.1968 14.9724 20.3068 14.5814 21.2565 14.6142L21.9144 14.0135L21.2565 13.4536C20.0506 13.4119 18.6164 13.9113 17.5552 14.9724C15.533 16.9946 15.533 20.285 17.5552 22.3072C18.5975 23.3495 20.0485 23.8717 21.2565 23.8269L21.9766 23.212L21.2565 22.6666Z" fill="#B4B9F2"/>
<path d="M25.6957 21.2654C25.4744 21.6426 25.2032 21.9931 24.8895 22.3069C24.5761 22.6202 24.2256 22.8918 23.8476 23.1135C23.0406 23.5882 22.1462 23.8219 21.2563 23.8269V22.6667C21.9442 22.6612 22.6359 22.4798 23.26 22.1126C23.5532 21.9405 23.8252 21.73 24.0689 21.4863C24.3127 21.2426 24.5231 20.9706 24.6949 20.6777C25.6234 19.0985 25.3661 17.0902 24.0693 15.793C23.689 15.4131 23.246 15.1183 22.764 14.9183C22.2916 14.7229 21.7821 14.6185 21.2563 14.6142V13.4536C22.629 13.4621 23.9184 14.001 24.8899 14.9725C26.5608 16.6434 26.892 19.2312 25.6957 21.2654Z" fill="#7C83E7"/>
</g>
<defs>
<clipPath id="clip0_1221_2979">
<rect width="20" height="20" fill="white" transform="translate(9 9)"/>
</clipPath>
</defs>
</svg>
